<?xml version="1.0" standalone="no"?>
<!DOCTYPE svg PUBLIC "-//W3C//DTD SVG 20010904//EN"
 "http://www.w3.org/TR/2001/REC-SVG-20010904/DTD/svg10.dtd">
<svg version="1.0" xmlns="http://www.w3.org/2000/svg"
 width="500.000000pt" height="500.000000pt" viewBox="0 0 500.000000 500.000000"
 preserveAspectRatio="xMidYMid meet">
<metadata>
Created by potrace 1.16, written by Peter Selinger 2001-2019
</metadata>
<g transform="translate(0.000000,500.000000) scale(0.100000,-0.100000)"
fill="#86EFAC" stroke="none">
<path d="M2365 4953 c-354 -30 -608 -99 -910 -248 -404 -198 -722 -478 -968
-850 -88 -133 -207 -368 -261 -516 -194 -528 -192 -1155 5 -1689 219 -598 658
-1084 1224 -1360 233 -113 464 -187 705 -225 143 -23 488 -31 632 -15 313 33
571 108 848 246 718 358 1203 1021 1337 1829 26 157 26 593 0 748 -72 424
-227 788 -480 1126 -151 201 -420 445 -657 595 -202 128 -523 257 -770 310
-205 44 -515 65 -705 49z m375 -893 l0 -170 25 0 c39 0 173 -29 245 -54 129
-43 293 -162 377 -272 l32 -42 -109 -106 c-61 -59 -117 -106 -128 -106 -10 0
-29 12 -43 26 -77 84 -207 169 -320 208 -87 31 -80 70 -77 -406 l3 -422 85
-21 c241 -61 371 -125 485 -240 134 -134 195 -294 195 -512 0 -378 -227 -646
-633 -744 -43 -10 -91 -19 -108 -19 l-29 0 0 -230 0 -230 -200 0 -200 0 0 224
0 223 -77 13 c-245 39 -476 146 -621 288 -63 61 -132 159 -132 188 0 7 50 64
111 128 122 128 142 137 173 85 52 -87 209 -226 321 -282 52 -26 180 -67 209
-67 15 0 16 41 16 468 l0 467 -77 18 c-89 20 -234 76 -308 118 -170 96 -282
241 -332 429 -23 86 -22 261 1 350 67 260 270 433 593 504 40 9 83 16 97 16
l26 0 0 170 0 170 200 0 200 0 0 -170z"/>
<path d="M2250 3554 c-207 -69 -293 -197 -269 -398 10 -78 45 -152 101 -208
38 -38 168 -108 231 -123 l27 -7 0 376 0 376 -22 0 c-13 -1 -43 -8 -68 -16z"/>
<path d="M2740 1934 c0 -391 1 -415 18 -410 9 3 37 10 62 16 113 29 222 116
270 215 52 108 49 274 -7 378 -34 61 -103 124 -177 160 -52 26 -139 57 -158
57 -5 0 -8 -187 -8 -416z"/>
</g>
</svg>
