<?xml version="1.0" standalone="no"?>
<!DOCTYPE svg PUBLIC "-//W3C//DTD SVG 20010904//EN"
 "http://www.w3.org/TR/2001/REC-SVG-20010904/DTD/svg10.dtd">
<svg version="1.0" xmlns="http://www.w3.org/2000/svg"
 width="200.000000pt" height="253.000000pt" viewBox="0 0 200.000000 253.000000"
 preserveAspectRatio="xMidYMid meet">
<metadata>
Created by potrace 1.16, written by Peter Selinger 2001-2019
</metadata>
<g transform="translate(0.000000,253.000000) scale(0.100000,-0.100000)"
fill="#93C5FD" stroke="none">
<path d="M825 2491 c-188 -53 -359 -233 -410 -431 -34 -131 -16 -311 43 -425
55 -110 166 -221 273 -276 109 -55 275 -73 411 -44 200 42 377 207 441 410 31
101 30 282 -3 374 -68 191 -205 326 -396 391 -76 26 -270 27 -359 1z m145
-140 l0 -108 -103 -7 c-146 -10 -158 -2 -111 69 56 84 143 155 191 155 23 0
23 -2 23 -109z m168 66 c42 -30 132 -145 132 -168 0 -6 -48 -9 -122 -7 l-123
3 -3 35 c-2 19 -1 68 3 109 l7 73 30 -6 c17 -3 51 -21 76 -39z m-502 -239 c2
-3 -3 -36 -11 -74 -8 -38 -15 -83 -15 -101 0 -59 -5 -63 -87 -63 l-75 0 4 53
c7 73 47 168 78 185 22 11 94 11 106 0z m282 6 l52 -7 0 -119 0 -119 -157 3
-157 3 3 48 c1 27 10 78 19 115 l17 67 45 6 c66 9 119 10 178 3z m589 -39 c26
-47 58 -168 49 -190 -5 -13 -21 -15 -83 -13 l-77 3 -12 80 c-6 44 -16 97 -22
117 -12 45 -8 48 68 45 52 -2 55 -3 77 -42z m-192 -17 c8 -29 16 -82 17 -118
l3 -65 -155 0 -155 0 -3 104 c-1 58 0 111 2 118 4 10 38 13 140 13 l135 0 16
-52z m-720 -248 c3 -5 12 -51 20 -102 8 -51 17 -108 21 -125 l7 -33 -56 0
c-48 0 -58 4 -76 26 -40 50 -77 215 -54 237 10 11 131 8 138 -3z m370 -125 l0
-130 -126 -3 c-99 -2 -129 0 -138 12 -24 28 -53 219 -37 244 6 9 45 12 154 10
l147 -3 0 -130z m375 96 c0 -40 -13 -117 -30 -183 l-11 -38 -139 0 -140 0 0
123 c0 68 3 127 7 130 3 4 75 7 160 7 l153 0 0 -39z m220 12 c0 -44 -28 -150
-50 -193 l-20 -40 -69 0 -69 0 13 49 c7 28 16 78 20 113 11 103 6 98 96 98
l79 0 0 -27z m-293 -297 c8 -8 -26 -63 -72 -114 -52 -57 -95 -87 -142 -97
l-33 -7 0 111 0 110 28 5 c30 5 213 -1 219 -8z m-299 -61 c2 -33 1 -79 -3
-102 -5 -36 -10 -43 -29 -43 -31 0 -105 51 -142 97 -29 36 -64 95 -64 108 0 3
53 4 118 3 l117 -3 3 -60z"/>
<path d="M220 1291 c-166 -53 -227 -233 -126 -365 55 -73 179 -106 264 -70
184 77 188 329 6 422 -29 15 -114 23 -144 13z"/>
<path d="M1685 1291 c-167 -43 -234 -231 -130 -368 57 -74 184 -104 270 -64
179 84 179 327 0 419 -29 15 -105 22 -140 13z m135 -56 c35 -18 67 -54 85 -97
75 -181 -145 -338 -296 -211 -42 36 -62 80 -62 139 0 141 149 233 273 169z"/>
<path d="M154 777 c-56 -19 -97 -52 -125 -100 -24 -41 -24 -46 -27 -359 l-3
-318 270 0 271 0 0 180 c0 99 4 180 8 180 4 0 24 -12 43 -26 54 -41 141 -82
221 -104 91 -25 89 -25 78 6 -15 38 -12 107 5 130 21 28 18 41 -10 48 -123 31
-198 83 -309 214 -47 55 -95 100 -131 121 -52 32 -63 34 -153 38 -63 2 -111
-2 -138 -10z"/>
<path d="M1639 781 c-59 -12 -125 -57 -181 -124 -155 -182 -230 -228 -429
-261 -87 -15 -119 -108 -58 -168 29 -30 32 -31 99 -24 119 11 316 88 360 141
7 8 16 15 21 15 5 0 9 -81 9 -180 l0 -180 270 0 271 0 -3 324 -3 324 -30 44
c-46 65 -95 87 -201 93 -49 2 -105 1 -125 -4z m241 -63 c18 -13 43 -36 54 -51
20 -27 21 -42 24 -328 l3 -299 -230 0 -231 0 -2 204 -3 205 -60 -50 c-101 -85
-286 -159 -394 -159 -37 0 -61 23 -61 59 0 39 14 47 104 66 179 37 238 75 399
258 94 106 115 116 253 117 99 0 115 -2 144 -22z"/>
</g>
</svg>
