<?xml version="1.0" standalone="no"?>
<!DOCTYPE svg PUBLIC "-//W3C//DTD SVG 20010904//EN"
 "http://www.w3.org/TR/2001/REC-SVG-20010904/DTD/svg10.dtd">
<svg version="1.0" xmlns="http://www.w3.org/2000/svg"
 width="242.000000pt" height="242.000000pt" viewBox="0 0 242.000000 242.000000"
 preserveAspectRatio="xMidYMid meet">
<metadata>
Created by potrace 1.16, written by Peter Selinger 2001-2019
</metadata>
<g transform="translate(0.000000,242.000000) scale(0.100000,-0.100000)"
fill="#F5F5F5" stroke="none">
<path d="M30 1205 l0 -1165 1165 0 1165 0 0 45 0 45 -1120 0 -1120 0 0 1120 0
1120 -45 0 -45 0 0 -1165z"/>
<path d="M990 1130 l0 -910 50 0 50 0 0 910 0 910 -50 0 -50 0 0 -910z"/>
<path d="M1340 1065 l0 -845 50 0 50 0 0 845 0 845 -50 0 -50 0 0 -845z"/>
<path d="M647 1774 c-4 -4 -7 -355 -7 -781 l0 -773 50 0 50 0 -2 778 -3 777
-40 3 c-23 2 -44 0 -48 -4z"/>
<path d="M290 930 l0 -710 45 0 45 0 0 710 0 710 -45 0 -45 0 0 -710z"/>
<path d="M1697 1244 c-4 -4 -7 -236 -7 -516 l0 -508 50 0 50 0 -2 513 -3 512
-40 3 c-23 2 -44 0 -48 -4z"/>
<path d="M2050 335 l0 -115 45 0 45 0 0 115 0 115 -45 0 -45 0 0 -115z"/>
</g>
</svg>
