<?xml version="1.0" standalone="no"?>
<!DOCTYPE svg PUBLIC "-//W3C//DTD SVG 20010904//EN"
 "http://www.w3.org/TR/2001/REC-SVG-20010904/DTD/svg10.dtd">
<svg version="1.0" xmlns="http://www.w3.org/2000/svg"
 width="248.000000pt" height="254.000000pt" viewBox="0 0 248.000000 254.000000"
 preserveAspectRatio="xMidYMid meet">
<metadata>
Created by potrace 1.16, written by Peter Selinger 2001-2019
</metadata>
<g transform="translate(0.000000,254.000000) scale(0.100000,-0.100000)"
fill="#FCA5A5" stroke="none">
<path d="M220 2513 c-34 -32 -46 -79 -56 -225 -5 -74 -8 -87 -25 -91 -13 -3
-19 -14 -19 -31 0 -21 6 -28 30 -33 22 -4 32 -12 36 -32 7 -37 32 -133 38
-151 4 -11 -13 -23 -66 -44 -89 -36 -136 -78 -148 -131 -13 -55 -12 -333 1
-394 11 -53 37 -74 64 -51 23 19 27 63 16 187 -16 170 -16 240 0 259 7 9 44
31 81 50 l69 35 40 -88 c22 -48 52 -103 66 -121 21 -28 30 -33 61 -30 l37 3
40 122 c36 109 42 122 60 117 45 -13 90 -41 109 -67 20 -27 21 -42 21 -255 l0
-227 32 -3 c25 -3 33 1 38 19 10 30 -4 444 -16 491 -10 38 -18 43 -140 96
l-47 20 14 53 c8 29 14 72 14 94 0 29 5 44 20 53 25 15 26 48 1 61 -10 6 -20
9 -22 7 -2 -2 -5 28 -6 66 -2 101 -30 216 -59 244 -22 22 -31 24 -138 24 -112
0 -117 -1 -146 -27z m264 -419 c8 -39 0 -91 -16 -111 -11 -13 -123 -18 -152
-7 -13 5 -56 116 -56 145 0 5 49 9 109 9 l109 0 6 -36z"/>
<path d="M1099 2525 c-44 -24 -59 -73 -66 -205 -6 -111 -7 -119 -27 -122 -15
-2 -21 -10 -21 -28 0 -19 7 -27 32 -34 28 -9 32 -15 38 -55 4 -25 15 -69 24
-97 l18 -50 -63 -23 c-88 -31 -140 -72 -154 -118 -8 -25 -10 -110 -8 -241 3
-188 5 -205 22 -218 25 -18 31 -18 50 2 20 19 21 89 5 265 -7 70 -9 138 -5
153 5 20 24 35 85 65 l79 40 36 -82 c58 -128 80 -157 120 -157 18 0 39 7 46
16 7 8 28 63 46 122 36 119 33 116 112 82 70 -31 76 -56 69 -300 -4 -113 -3
-211 2 -218 5 -8 21 -12 37 -10 23 2 30 9 36 38 10 48 -7 448 -21 483 -11 27
-39 44 -155 91 -31 13 -36 19 -27 30 6 7 16 48 21 91 7 57 16 84 30 97 11 10
20 23 20 28 0 11 -29 40 -41 40 -5 0 -9 25 -9 55 0 65 -26 197 -45 236 -8 15
-22 29 -30 33 -33 12 -229 6 -256 -9z m251 -459 c0 -85 -11 -96 -99 -96 -81 0
-85 3 -111 94 l-19 66 115 0 114 0 0 -64z"/>
<path d="M1975 2531 c-48 -20 -74 -85 -75 -187 0 -93 -11 -142 -31 -147 -13
-3 -19 -14 -19 -31 0 -21 6 -28 30 -33 20 -3 32 -13 35 -27 3 -11 10 -43 15
-70 6 -26 17 -61 26 -77 13 -26 13 -29 -1 -29 -33 0 -161 -68 -187 -98 -33
-40 -43 -127 -36 -323 4 -107 9 -144 22 -164 22 -33 46 -29 65 10 12 24 12 50
3 160 -17 188 -16 249 6 267 19 18 142 81 147 76 1 -2 19 -41 39 -87 49 -116
78 -151 121 -151 41 0 49 12 91 152 26 87 31 97 49 92 45 -13 90 -41 109 -67
20 -27 21 -42 21 -254 0 -224 0 -226 22 -234 16 -6 27 -3 39 9 15 15 16 39 10
242 -3 124 -11 243 -17 264 -11 40 -4 35 -145 96 l-42 18 14 53 c8 29 14 72
14 94 0 29 5 44 20 53 25 15 26 48 1 61 -10 6 -20 8 -23 6 -2 -2 -2 10 0 28 5
42 -23 204 -44 256 -9 24 -24 41 -37 45 -33 9 -219 6 -242 -3z m243 -465 c-5
-86 -15 -96 -97 -96 -36 0 -72 4 -79 9 -11 6 -52 120 -52 144 0 4 52 7 116 7
l116 0 -4 -64z"/>
<path d="M242 1223 c-18 -9 -40 -29 -48 -45 -12 -24 -32 -175 -34 -254 0 -13
-8 -24 -21 -27 -16 -4 -20 -12 -17 -34 2 -22 9 -29 29 -31 25 -3 28 -10 48
-90 12 -48 23 -93 24 -100 1 -7 -23 -23 -54 -36 -80 -32 -119 -57 -143 -89
-20 -27 -21 -41 -21 -240 0 -235 5 -261 53 -255 40 5 45 46 29 238 -9 109 -11
175 -4 193 7 21 27 37 78 62 38 19 72 35 76 35 5 0 28 -43 52 -95 49 -107 79
-145 114 -145 37 0 52 26 88 143 37 121 35 119 119 79 61 -29 65 -50 65 -302
l0 -225 27 -3 c47 -6 51 20 43 272 -9 282 -7 276 -126 326 -82 34 -86 36 -73
56 8 11 17 55 20 97 5 53 11 77 20 77 19 0 27 18 20 46 -4 14 -14 24 -25 24
-14 0 -17 6 -13 25 6 35 -26 223 -46 265 -15 31 -22 36 -67 42 -92 12 -178 8
-213 -9z m215 -399 c27 -8 40 -69 23 -118 -9 -29 -17 -35 -51 -41 -46 -8 -114
2 -127 18 -8 10 -42 115 -42 130 0 12 161 20 197 11z"/>
<path d="M1110 1223 c-53 -27 -70 -72 -77 -207 -4 -81 -10 -116 -18 -116 -20
0 -37 -28 -30 -49 3 -12 17 -21 32 -23 24 -3 28 -10 44 -81 11 -43 23 -86 28
-96 9 -15 0 -22 -68 -50 -47 -20 -92 -46 -112 -67 l-34 -35 -3 -212 c-2 -222
3 -258 41 -265 50 -10 56 39 35 275 -8 99 -9 139 0 158 7 15 37 37 81 60 39
19 73 35 75 35 3 0 25 -44 51 -97 51 -108 78 -143 110 -143 37 0 52 23 86 130
18 58 37 109 41 114 11 13 91 -20 119 -50 24 -26 24 -27 24 -252 0 -125 4
-233 8 -240 5 -6 19 -12 32 -12 20 0 26 7 34 38 14 50 -2 457 -19 494 -10 21
-34 36 -101 64 -80 35 -87 39 -77 58 6 11 14 53 19 93 6 58 13 78 30 92 18 15
20 21 10 39 -6 12 -18 22 -25 22 -9 0 -15 25 -19 88 -7 103 -31 200 -55 224
-14 14 -41 19 -122 24 -90 5 -110 3 -140 -13z m209 -399 c30 -6 31 -8 31 -63
0 -32 -6 -65 -13 -75 -16 -21 -78 -30 -132 -19 -38 9 -40 10 -61 80 l-22 72
42 4 c76 7 123 7 155 1z"/>
<path d="M1974 1225 c-50 -26 -63 -61 -74 -196 -8 -116 -16 -138 -43 -139 -5
0 -7 -12 -5 -27 2 -22 9 -29 30 -31 21 -3 29 -10 33 -30 3 -15 14 -56 23 -92
9 -36 17 -69 17 -73 0 -4 -25 -18 -56 -31 -82 -33 -127 -64 -147 -99 -14 -27
-17 -62 -17 -237 0 -223 5 -250 51 -250 41 0 48 35 35 191 -15 189 -14 244 5
264 17 16 127 75 141 75 5 0 28 -43 52 -95 48 -105 79 -145 112 -145 38 0 55
27 90 141 l34 110 30 -7 c47 -9 89 -37 105 -70 12 -24 15 -69 12 -243 -2 -221
1 -241 39 -241 38 0 42 32 35 270 -9 282 -8 280 -124 329 -65 27 -81 38 -76
50 14 34 24 88 24 132 0 38 4 48 20 52 27 7 28 57 1 64 -15 4 -19 18 -24 79
-9 99 -35 209 -55 234 -15 18 -32 21 -127 26 -88 4 -116 2 -141 -11z m215
-401 c30 -6 31 -9 31 -55 0 -77 -12 -97 -64 -104 -25 -4 -62 -3 -83 2 -33 7
-40 15 -54 53 -9 25 -19 57 -23 72 -6 26 -4 27 36 31 79 7 125 7 157 1z"/>
</g>
</svg>
