<?xml version="1.0" standalone="no"?>
<!DOCTYPE svg PUBLIC "-//W3C//DTD SVG 20010904//EN"
 "http://www.w3.org/TR/2001/REC-SVG-20010904/DTD/svg10.dtd">
<svg version="1.0" xmlns="http://www.w3.org/2000/svg"
 width="100.000000pt" height="87.000000pt" viewBox="0 0 100.000000 87.000000"
 preserveAspectRatio="xMidYMid meet">
<metadata>
Created by potrace 1.16, written by Peter Selinger 2001-2019
</metadata>
<g transform="translate(0.000000,87.000000) scale(0.100000,-0.100000)"
fill="#F5F5F5" stroke="none">
<path d="M263 850 c-32 -19 -35 -27 -37 -95 -1 -24 -6 -31 -25 -33 -52 -8
-110 -73 -97 -109 4 -8 -1 -35 -9 -59 -8 -25 -15 -59 -15 -75 0 -28 -3 -30
-23 -25 -20 5 -26 -1 -40 -30 -30 -63 -17 -132 29 -153 20 -9 23 -14 15 -30
-6 -10 -7 -22 -3 -26 4 -3 7 -45 7 -91 0 -79 2 -86 25 -104 66 -51 125 -7 150
112 10 53 14 58 54 77 23 12 60 36 82 55 l40 34 -2 -66 c0 -37 -4 -83 -8 -103
-8 -36 -8 -37 40 -53 45 -15 114 -22 114 -11 0 3 -16 20 -36 37 -40 35 -41 53
-9 137 9 25 19 82 22 126 6 82 6 82 38 94 27 9 40 26 70 86 42 85 70 109 137
119 26 4 50 11 53 17 4 5 42 9 86 9 46 0 79 4 79 10 0 6 -28 10 -64 10 -56 0
-64 2 -69 21 -4 14 -10 18 -18 13 -10 -6 -10 -9 -1 -12 7 -2 12 -8 12 -14 0
-6 -7 -8 -15 -5 -22 9 -264 10 -307 2 -26 -5 -38 -4 -38 4 0 6 17 12 38 12 36
1 36 2 -12 12 -47 9 -50 9 -68 -17 -24 -32 -33 -33 -54 -1 -13 20 -14 28 -4
40 14 17 7 44 -21 79 -25 32 -70 34 -116 6z"/>
</g>
</svg>
