<?xml version="1.0" standalone="no"?>
<!DOCTYPE svg PUBLIC "-//W3C//DTD SVG 20010904//EN"
 "http://www.w3.org/TR/2001/REC-SVG-20010904/DTD/svg10.dtd">
<svg version="1.0" xmlns="http://www.w3.org/2000/svg"
 width="160.000000pt" height="199.000000pt" viewBox="0 0 160.000000 199.000000"
 preserveAspectRatio="xMidYMid meet">
<metadata>
Created by potrace 1.16, written by Peter Selinger 2001-2019
</metadata>
<g transform="translate(0.000000,199.000000) scale(0.100000,-0.100000)"
fill="#F5F5F5" stroke="none">
<path d="M608 1966 c-103 -30 -178 -77 -269 -167 -60 -59 -85 -93 -117 -160
-49 -101 -77 -228 -68 -306 14 -121 105 -317 290 -624 64 -105 115 -193 114
-194 -2 -1 -46 -8 -98 -14 -128 -16 -240 -46 -328 -89 -91 -44 -132 -89 -132
-148 0 -105 113 -175 373 -230 164 -35 535 -45 723 -20 244 32 430 100 482
176 40 60 24 135 -41 184 -76 58 -263 116 -421 131 -42 4 -79 11 -81 16 -3 4
19 45 48 91 168 262 303 521 333 638 12 46 15 90 12 150 -16 260 -193 484
-451 565 -106 34 -257 34 -369 1z m294 -71 c232 -48 404 -235 438 -476 22
-158 -47 -310 -393 -861 l-154 -247 -83 132 c-364 580 -470 789 -470 927 0
242 192 471 440 524 86 19 134 19 222 1z m-210 -1585 c38 -63 76 -119 84 -123
29 -16 50 6 119 123 l70 120 46 0 c54 0 241 -33 319 -56 77 -23 167 -70 180
-94 17 -31 -3 -56 -72 -91 -139 -70 -348 -104 -643 -103 -364 0 -666 69 -708
162 -10 22 -8 28 23 53 43 36 169 82 285 102 50 9 99 18 110 21 11 2 42 3 69
3 l49 -2 69 -115z"/>
<path d="M727 1678 c-189 -40 -298 -259 -214 -430 113 -231 430 -240 551 -17
37 67 46 161 22 241 -41 142 -208 238 -359 206z m134 -89 c131 -40 195 -204
125 -323 -76 -129 -239 -151 -347 -47 -94 92 -92 228 4 319 58 56 138 75 218
51z"/>
</g>
</svg>
