<?xml version="1.0" standalone="no"?>
<!DOCTYPE svg PUBLIC "-//W3C//DTD SVG 20010904//EN"
 "http://www.w3.org/TR/2001/REC-SVG-20010904/DTD/svg10.dtd">
<svg version="1.0" xmlns="http://www.w3.org/2000/svg"
 width="367.000000pt" height="366.000000pt" viewBox="0 0 367.000000 366.000000"
 preserveAspectRatio="xMidYMid meet">
<metadata>
Created by potrace 1.16, written by Peter Selinger 2001-2019
</metadata>
<g transform="translate(0.000000,366.000000) scale(0.100000,-0.100000)"
fill="#D8B4FE" stroke="none">
<path d="M1646 3191 l-179 -460 -57 -25 c-198 -89 -389 -281 -479 -482 l-23
-52 -442 -171 c-243 -95 -448 -176 -456 -182 -13 -8 -13 -10 0 -18 8 -6 213
-87 456 -181 l441 -172 37 -76 c50 -101 116 -192 193 -269 71 -69 201 -160
279 -193 l52 -21 72 -187 c247 -639 273 -702 290 -702 13 0 56 100 190 444
l173 445 51 22 c78 32 209 123 279 192 77 77 143 168 193 269 l38 76 458 178
c252 98 458 181 458 184 0 3 -207 86 -459 184 l-460 179 -21 51 c-82 191 -272
383 -477 480 l-60 28 -179 459 c-98 253 -181 459 -184 459 -3 0 -86 -207 -184
-459z m249 -1066 l59 -185 204 -2 204 -3 -161 -115 c-88 -63 -160 -122 -161
-130 0 -9 20 -76 45 -150 25 -74 52 -157 60 -183 l14 -48 -52 38 c-29 21 -103
75 -164 120 l-113 83 -152 -111 c-84 -62 -159 -116 -165 -121 -15 -12 -5 23
62 222 25 74 45 141 45 150 -1 8 -73 67 -161 130 l-161 115 204 3 203 2 59
185 c33 102 62 185 66 185 4 0 33 -83 65 -185z"/>
<path d="M1096 3368 c-136 -80 -72 -288 85 -275 107 9 167 110 125 211 -31 75
-136 107 -210 64z"/>
<path d="M2420 3371 c-46 -24 -70 -59 -77 -108 -12 -90 45 -162 135 -170 86
-7 162 62 162 147 0 109 -124 183 -220 131z"/>
<path d="M497 2952 c-81 -82 -147 -153 -147 -158 0 -5 69 -75 153 -156 l154
-146 146 146 c81 81 147 152 147 157 0 10 -291 305 -301 305 -2 0 -71 -67
-152 -148z"/>
<path d="M2847 2952 c-81 -81 -147 -152 -147 -157 0 -6 67 -77 150 -160 l149
-149 151 149 c82 82 150 154 150 160 0 10 -290 305 -300 305 -3 0 -72 -66
-153 -148z"/>
<path d="M190 2270 l0 -50 235 0 235 0 0 50 0 50 -235 0 -235 0 0 -50z"/>
<path d="M3070 2270 l0 -50 235 0 235 0 0 50 0 50 -235 0 -235 0 0 -50z"/>
<path d="M190 1250 l0 -50 235 0 235 0 0 50 0 50 -235 0 -235 0 0 -50z"/>
<path d="M3070 1250 l0 -50 235 0 235 0 0 50 0 50 -235 0 -235 0 0 -50z"/>
<path d="M495 880 l-150 -150 153 -152 152 -153 150 150 c82 82 150 154 150
160 0 13 -282 295 -295 295 -6 0 -78 -68 -160 -150z"/>
<path d="M2845 880 l-149 -149 155 -150 154 -150 152 152 153 152 -147 147
c-81 82 -152 148 -158 148 -6 0 -77 -67 -160 -150z"/>
<path d="M1115 545 c-22 -8 -41 -15 -42 -15 -12 -1 -53 -95 -53 -121 0 -154
213 -206 282 -69 62 124 -56 253 -187 205z"/>
<path d="M2435 545 c-69 -25 -105 -92 -91 -169 19 -102 141 -150 230 -90 66
45 84 125 44 196 -36 64 -110 90 -183 63z"/>
</g>
</svg>
